# xmcd
# 
# Track frame offsets:
#     150
#     5780
#     24929
#     49706
#     61709
# 
# Disc length: 1194
# 
# Revision: 0
# Processed by: cddbd v1.5.2PL0 Copyright (c) Steve Scherf et al.
# Submitted via: fre:ac v1.0.17
# 
DISCID=3204a805
DTITLE=Apostate - Seaborne
DYEAR=2010
DGENRE=Metal
TTITLE0=Paragraph
TTITLE1=Omit The Words
TTITLE2=False Footsteps
TTITLE3=Numbers Are Going Down
TTITLE4=Raised On The Blood Of Heroes
EXTD=
EXTT0=
EXTT1=
EXTT2=
EXTT3=
EXTT4=
PLAYORDER=
